<svg xmlns="http://www.w3.org/2000/svg" width="20" height="20" fill="none"><g clip-path="url(#a)"><mask id="b" fill="#fff"><path d="M2.897.008H2.9V0v.006l-.003.002Z"/></mask><path fill="#1E1F1E" d="M2.897.008H2.9V0v.006l-.003.002Z"/><path fill="#1E1F1E" d="M2.897.008v.55h.22l.158-.151-.378-.399Zm.003 0v.55h.55v-.55H2.9Zm0-.002.378.398.171-.162V.006H2.9Zm-.003.002v.55H2.9v-1.1h-.002v.55Zm.003 0h.55V0h-1.1v.007h.55ZM2.9 0h-.549v.006H3.45V0H2.9Zm0 .006-.377-.399-.003.003.377.398.378.399.003-.003L2.9.006Z" mask="url(#b)"/><path fill="#1E1F1E" d="M2.738 19.999v-.008h-.003v.008h.003ZM20 10.056c-.037-.037-.063-.074-.131-.165-.14-.186-.43-.327-.791-.437-.372-.602-1.229-1.028-2.223-1.335-1.032-1.998-.89-3.497-5.197-5.291C7.182.962 4.656.34 2.9.004c.01.06.145.755 1.237 1.357l-.018-.003s.094.732 1.237 1.364l-.018-.002s.094.731 1.237 1.363l-.018-.002s.094.731 1.237 1.363l-.018-.002s.094.731 1.237 1.363c-.006 0-.012-.004-.018-.004 0 0 .082.628 1.002 1.22-1.151.17-2.205.353-2.822.464-1.95.352-2.612.493-4.253.528a39.842 39.842 0 0 1-2.923-.044c.112.708 1.385.727 1.397.758.062.149.315.35.576.463.324.138 1.02.175 1.07.184l.171.138c.183.15.396.243.623.28l2.046.19c.185.02.693.035.902.158.546.391 1.247.738 2.04 1.017.088.08.152.145.185.184.052.063.12.123.192.177-.327.381-.367.68-.367.68a.054.054 0 0 0 .018-.005c-1.143.632-1.237 1.364-1.237 1.364l.018-.002c-1.142.632-1.237 1.363-1.237 1.363l.018-.002c-1.142.632-1.237 1.363-1.237 1.363l.018-.002c-1.142.632-1.237 1.363-1.237 1.363l.018-.002c-1.092.604-1.226 1.296-1.236 1.357 1.757-.34 4.283-.959 8.759-2.824 4.08-1.699 4.166-3.136 5.042-4.982 1-.277 1.903-.664 2.381-1.214l.059.009-.033-.041c.059-.07.109-.14.153-.216l.05-.09c.328-.105.587-.242.719-.415.068-.09.094-.127.13-.164v-.002Z"/></g><defs><clipPath id="a"><path fill="#fff" d="M0 0h20v20H0z"/></clipPath></defs></svg>