<?xml version="1.0" encoding="UTF-8"?>
<!--Generator: Apple Native CoreSVG 341-->
<!DOCTYPE svg
PUBLIC "-//W3C//DTD SVG 1.1//EN"
       "http://www.w3.org/Graphics/SVG/1.1/DTD/svg11.dtd">
<svg version="1.1" xmlns="http://www.w3.org/2000/svg" xmlns:xlink="http://www.w3.org/1999/xlink" viewBox="0 0 301.367 214.551">
 <g>
  <rect height="214.551" opacity="0" width="301.367" x="0" y="0"/>
  <path d="M37.9883 214.551L266.309 214.551C288.477 214.551 301.367 201.758 301.367 176.855L301.367 37.6953C301.367 12.793 288.379 0.0976562 263.281 0.0976562L35.0586 0.0976562C12.8906 0.0976562 0 12.793 0 37.6953L0 176.855C0 201.758 12.9883 214.551 37.9883 214.551ZM37.5977 198.047C24.1211 198.047 16.5039 190.625 16.5039 176.758L16.5039 37.6953C16.5039 24.0234 24.1211 16.6016 37.5977 16.6016L263.77 16.6016C277.246 16.6016 284.766 24.0234 284.766 37.793L284.766 176.855C284.766 190.625 277.246 198.047 263.77 198.047ZM150.586 139.062C158.398 139.062 165.723 136.133 172.754 129.785L291.602 22.8516L280.273 11.5234L163.086 116.992C158.984 120.703 154.883 122.461 150.586 122.461C146.289 122.461 142.285 120.703 138.184 116.992L20.8984 11.5234L9.57031 22.8516L128.516 129.785C135.547 136.133 142.773 139.062 150.586 139.062ZM22.8516 199.902L113.77 108.984L102.441 97.7539L11.5234 188.477ZM278.613 200L289.844 188.574L198.926 97.7539L187.598 108.984Z" fill="white" fill-opacity="0.85"/>
 </g>
</svg>
