<?xml version="1.0" encoding="UTF-8"?>
<!--Generator: Apple Native CoreSVG 341-->
<!DOCTYPE svg
PUBLIC "-//W3C//DTD SVG 1.1//EN"
       "http://www.w3.org/Graphics/SVG/1.1/DTD/svg11.dtd">
<svg version="1.1" xmlns="http://www.w3.org/2000/svg" xmlns:xlink="http://www.w3.org/1999/xlink" viewBox="0 0 235.645 168.457">
 <g>
  <rect height="168.457" opacity="0" width="235.645" x="0" y="0"/>
  <path d="M117.773 95.1172C120.996 95.1172 124.121 93.8477 127.148 91.1133L224.707 5.17578C219.434 1.66016 213.379 0.0976562 204.98 0.0976562L30.6641 0.0976562C22.2656 0.0976562 16.2109 1.66016 10.8398 5.17578L108.398 91.1133C111.523 93.8477 114.648 95.1172 117.773 95.1172ZM2.53906 152.637L74.8047 80.4688L2.34375 16.6016C1.26953 18.6523 0 23.6328 0 30.3711L0 138.184C0 144.434 0.976562 148.926 2.53906 152.637ZM27.7344 168.457L207.91 168.457C215.039 168.457 220.605 166.699 224.316 164.16L150 89.8438L135.742 102.539C130.078 107.52 123.926 110.059 117.773 110.059C111.719 110.059 105.566 107.52 99.9023 102.539L85.6445 89.8438L11.3281 164.16C15.0391 166.699 20.5078 168.457 27.7344 168.457ZM233.105 152.637C234.57 148.926 235.645 144.434 235.645 138.184L235.645 30.3711C235.645 23.6328 234.375 18.6523 233.301 16.6016L160.84 80.4688Z" fill="white" fill-opacity="0.85"/>
 </g>
</svg>
