<svg xmlns="http://www.w3.org/2000/svg" viewBox="0 0 512 384">
  <path fill="#4285f4" d="M34.91 384h81.454V186.182L0 98.909V349.09C0 368.371 15.629 384 34.91 384Z"/>
  <path fill="#34a853" d="M395.636 384h81.455C496.371 384 512 368.371 512 349.09V98.909l-116.364 87.273V384Z"/>
  <path fill="#fbbc04" d="M395.636 34.91v151.272L512 98.909V52.364C512 9.242 462.749-15.386 428.218 10.473L395.636 34.91Z"/>
  <path fill="#ea4335" d="M116.364 186.182V34.91L256 139.636 395.636 34.91v151.272L256 290.909 116.364 186.182Z"/>
  <path fill="#c5221f" d="M0 52.364v46.545l116.364 87.273V34.91L83.782 10.473C49.251-15.386 0 9.242 0 52.364Z"/>
</svg>
