<svg viewBox="0 0 24 24" fill="#07C160" xmlns="http://www.w3.org/2000/svg"><path d="M8.691 2.188C3.891 2.188 0 5.476 0 9.53c0 2.212 1.17 4.203 3.002 5.55a.59.59 0 0 1 .213.665l-.39 1.48c-.019.07-.048.141-.048.213 0 .163.13.295.29.295a.326.326 0 0 0 .167-.054l1.903-1.114a.864.864 0 0 1 .717-.098 10.16 10.16 0 0 0 2.837.403c.276 0 .543-.027.811-.05a6.127 6.127 0 0 1-.253-1.738c0-3.54 3.29-6.41 7.34-6.41.343 0 .674.033 1.009.07C16.932 4.413 13.21 2.188 8.691 2.188zm-2.7 4.795a1.06 1.06 0 1 1 0 2.12 1.06 1.06 0 0 1 0-2.12zm5.4 0a1.06 1.06 0 1 1 0 2.12 1.06 1.06 0 0 1 0-2.12zM16.59 9.59c-3.488 0-6.32 2.459-6.32 5.49 0 3.034 2.832 5.494 6.32 5.494a7.83 7.83 0 0 0 2.224-.319.654.654 0 0 1 .543.074l1.45.849a.247.247 0 0 0 .127.041.224.224 0 0 0 .221-.224c0-.054-.022-.109-.036-.162l-.297-1.127a.448.448 0 0 1 .162-.506C22.716 18.156 24 16.434 24 15.08c0-3.031-2.832-5.49-6.32-5.49h-.09zm-2.44 3.394a.887.887 0 1 1 0 1.774.887.887 0 0 1 0-1.774zm4.88 0a.887.887 0 1 1 0 1.774.887.887 0 0 1 0-1.774z"/></svg>
